# xmcd
#
# Track frame offsets:
#	150
#	17731
#	45918
#	65611
#
# Disc length: 1171 seconds
#
# Revision: 0
# Processed by: cddbd v1.5.1PL2 Copyright (c) Steve Scherf et al.
# Submitted via: audiograbber 1.83.01
#
DISCID=29049104
DTITLE=Tim McLaughlin - Richest Man
DYEAR=2006
DGENRE=Country
TTITLE0=Hear Her Say
TTITLE1=Home to You
TTITLE2=Richest Man
TTITLE3=Together
EXTD=Unreleased Demo
EXTT0=
EXTT1=
EXTT2=
EXTT3=
PLAYORDER=
